<svg xmlns="http://www.w3.org/2000/svg" width="900" height="620" viewBox="0 0 900 620">
  <rect width="900" height="620" fill="#e9edf2"/>
  <rect x="80" y="62" width="740" height="480" rx="8" fill="#ffffff" stroke="#aeb8c2"/>
  <rect x="80" y="62" width="740" height="48" rx="8" fill="#f7f9fb"/>
  <text x="108" y="94" font-family="Segoe UI, Arial" font-size="17" fill="#1f2a33">Documents</text>
  <rect x="120" y="148" width="190" height="42" rx="6" fill="#dcebff"/>
  <text x="154" y="175" font-family="Segoe UI, Arial" font-size="15" fill="#1f2a33">Project Folder</text>
  <rect x="330" y="132" width="332" height="390" rx="8" fill="#ffffff" stroke="#8995a1"/>
  <text x="358" y="174" font-family="Segoe UI, Arial" font-size="15" fill="#1f2a33">Open</text>
  <text x="358" y="212" font-family="Segoe UI, Arial" font-size="15" fill="#1f2a33">Open in Terminal</text>
  <line x1="330" y1="236" x2="662" y2="236" stroke="#d7dee5"/>
  <rect x="340" y="254" width="312" height="34" rx="4" fill="#e8f2ff"/>
  <text x="358" y="276" font-family="Segoe UI, Arial" font-size="15" font-weight="700" fill="#0f3557">dew encryption</text>
  <text x="358" y="318" font-family="Segoe UI, Arial" font-size="15" fill="#1f2a33">dew encryption start file history</text>
  <text x="358" y="356" font-family="Segoe UI, Arial" font-size="15" fill="#1f2a33">dew encryption file history manager</text>
  <line x1="330" y1="378" x2="662" y2="378" stroke="#d7dee5"/>
  <text x="358" y="416" font-family="Segoe UI, Arial" font-size="15" fill="#1f2a33">dew encryption quick create container</text>
  <text x="358" y="454" font-family="Segoe UI, Arial" font-size="15" fill="#1f2a33">dew encryption VeraCrypt encrypt</text>
  <line x1="330" y1="476" x2="662" y2="476" stroke="#d7dee5"/>
  <text x="358" y="504" font-family="Segoe UI, Arial" font-size="15" fill="#1f2a33">Properties</text>
</svg>
